<?xml version="1.0" standalone="no"?>
<!DOCTYPE svg PUBLIC "-//W3C//DTD SVG 20010904//EN"
 "http://www.w3.org/TR/2001/REC-SVG-20010904/DTD/svg10.dtd">
<svg version="1.0" xmlns="http://www.w3.org/2000/svg"
 width="260.000000pt" height="260.000000pt" viewBox="0 0 260.000000 260.000000"
 preserveAspectRatio="xMidYMid meet">
<metadata>
Created by potrace 1.11, written by Peter Selinger 2001-2013
</metadata>
<g transform="translate(0.000000,260.000000) scale(0.100000,-0.100000)"
fill="#000000" stroke="none">
<path d="M399 2477 c-143 -49 -239 -150 -283 -296 -14 -46 -16 -116 -16 -453
l0 -398 175 0 175 0 0 -35 0 -35 -175 0 -175 0 0 -392 c0 -417 3 -446 50 -538
29 -57 123 -151 180 -180 98 -50 90 -50 970 -50 880 0 872 0 970 50 57 29 151
123 180 180 47 92 50 121 50 538 l0 392 -175 0 -175 0 0 35 0 35 175 0 176 0
-3 418 c-3 408 -4 418 -26 474 -44 110 -140 206 -249 250 -57 23 -65 23 -475
26 l-418 3 0 -181 0 -180 -30 0 -30 0 0 180 0 180 -402 0 c-392 -1 -405 -1
-469 -23z"/>
</g>
</svg>
