<?xml version="1.0" encoding="UTF-8" standalone="no"?>
<svg
   height="24"
   width="24"
   version="1.1"
   id="svg22"
   sodipodi:docname="mActionZoomFullExtent.svg"
   inkscape:version="1.1.2 (b8e25be833, 2022-02-05)"
   xmlns:inkscape="http://www.inkscape.org/namespaces/inkscape"
   xmlns:sodipodi="http://sodipodi.sourceforge.net/DTD/sodipodi-0.dtd"
   xmlns="http://www.w3.org/2000/svg"
   xmlns:svg="http://www.w3.org/2000/svg">
  <defs
     id="defs26" />
  <sodipodi:namedview
     id="namedview24"
     pagecolor="#505050"
     bordercolor="#ffffff"
     borderopacity="1"
     inkscape:pageshadow="0"
     inkscape:pageopacity="0"
     inkscape:pagecheckerboard="1"
     showgrid="false"
     inkscape:zoom="33.666667"
     inkscape:cx="11.985149"
     inkscape:cy="12"
     inkscape:window-width="1200"
     inkscape:window-height="1262"
     inkscape:window-x="-9"
     inkscape:window-y="-1350"
     inkscape:window-maximized="0"
     inkscape:current-layer="svg22" />
  <g
     stroke-linejoin="round"
     id="g10"
     transform="translate(0,-8)">
    <path
       d="m 17.96122,7 c 0,3.354712 -2.668929,6.074244 -5.96122,6.074244 C 8.707709,13.074244 6.0387797,10.354712 6.0387797,7 6.0387797,3.6452879 8.707709,0.92575645 12,0.92575645 c 3.292291,0 5.96122,2.71953145 5.96122,6.07424355 z"
       style="opacity:0.8;fill:#e6e6e6;stroke:#505050;stroke-width:0.752183;stroke-linecap:round;stroke-dashoffset:7"
       transform="matrix(1.3420071,0,0,1.3170365,-1.604085,8.279109)"
       id="path2" />
    <path
       d="m 23.500183,31.477801 h -7.77801 l 2.59267,-2.592605 -2.59267,-2.592606 2.592667,-2.592606 2.592672,2.592606 2.592668,-2.592606 z"
       fill="#6d97c4"
       fill-rule="evenodd"
       stroke="#415a75"
       id="path4"
       style="stroke-width:1.00001" />
    <path
       d="m 7.5000001,22.5 c 0,2 2,2 2,2 0,0 -7,7 -7,7 l -2.00000001,-2 z"
       fill="#ffcc30"
       fill-rule="evenodd"
       stroke="#505050"
       id="path6" />
    <path
       d="m 6.0000001,24 2,-2 L 10,24 8.0000001,26 Z"
       fill-rule="evenodd"
       stroke="#505050"
       id="path8" />
  </g>
  <path
     d="m 10,5 c 2,-3 4.442248,-3.398055 6,-2 1.557752,1.398055 -2,1 -4,3 -2,2 0,6 -2,6 -1.9999999,0 -1.9999999,-4 0,-7 z"
     fill="#fcffff"
     fill-rule="evenodd"
     opacity="0.7"
     id="path12" />
  <path
     d="m 2.0000001,21 4,-4"
     opacity="0.5"
     stroke="#fcffff"
     stroke-linecap="round"
     stroke-linejoin="round"
     id="path14" />
  <path
     d="m 23.499999,0.5 1e-6,7.777834 -2.592612,-2.592614 -2.59261,2.592614 -2.59261,-2.592612 2.59261,-2.59261 -2.59261,-2.5926114 z"
     fill="#6d97c4"
     fill-rule="evenodd"
     stroke="#415a75"
     stroke-linejoin="round"
     id="path16" />
  <path
     d="M 0.5,0.5 H 8.277832 L 5.68522,3.09261 8.277832,5.68522 5.685221,8.27783 3.0926105,5.68522 0.5000003,8.27783 Z"
     fill="#6d97c4"
     fill-rule="evenodd"
     stroke="#415a75"
     stroke-linejoin="round"
     id="path18" />
</svg>
