<?xml version="1.0" encoding="UTF-8" standalone="no"?>
<svg
   height="24"
   width="24"
   version="1.1"
   id="svg8"
   sodipodi:docname="mActionDocs.svg"
   inkscape:version="1.1.2 (b8e25be833, 2022-02-05)"
   inkscape:export-filename="C:\Users\Acer\Downloads\iconDocumentation.png"
   inkscape:export-xdpi="192"
   inkscape:export-ydpi="192"
   xmlns:inkscape="http://www.inkscape.org/namespaces/inkscape"
   xmlns:sodipodi="http://sodipodi.sourceforge.net/DTD/sodipodi-0.dtd"
   xmlns="http://www.w3.org/2000/svg"
   xmlns:svg="http://www.w3.org/2000/svg">
  <defs
     id="defs12" />
  <sodipodi:namedview
     id="namedview10"
     pagecolor="#505050"
     bordercolor="#ffffff"
     borderopacity="1"
     inkscape:pageshadow="0"
     inkscape:pageopacity="0"
     inkscape:pagecheckerboard="1"
     showgrid="false"
     inkscape:zoom="33.666667"
     inkscape:cx="11.925742"
     inkscape:cy="12.014851"
     inkscape:window-width="1920"
     inkscape:window-height="1001"
     inkscape:window-x="-9"
     inkscape:window-y="-9"
     inkscape:window-maximized="1"
     inkscape:current-layer="svg8" />
  <path
     d="m 4.5,22.4996 v -21 h 10 l 5,5 V 22.5 Z"
     fill="#ffffff"
     id="path2"
     style="fill-rule:evenodd;stroke:#415a75;stroke-linejoin:round;stroke-opacity:1" />
  <path
     d="m 14.5,1.4996 v 5 h 5 z"
     fill="#f0f0f0"
     id="path4"
     style="fill-rule:evenodd;stroke:#415a75;stroke-linejoin:round;stroke-opacity:1" />
  <path
     d="m 13.735817,17.554946 -0.207769,-0.207185 c -0.189332,-0.18904 -0.551905,-0.151583 -0.701733,0.07258 -0.09394,0.140756 -0.528204,0.590241 -0.801815,0.801522 0.03395,-0.140172 0.09891,-0.354379 0.22123,-0.702026 l 1.097374,-3.115372 c 0.257809,-0.737728 0.413491,-1.183115 0.413491,-1.562953 0,-0.601068 -0.443047,-0.989684 -1.1281,-0.989684 -1.730339,0 -3.0846449,1.56266 -3.585925,2.233959 -0.00643,0.0085 -0.01229,0.01668 -0.017558,0.024 -0.086326,0.09803 -0.1205645,0.228838 -0.093642,0.362865 0.020777,0.103591 0.077547,0.203964 0.1644601,0.290877 l 0.1556806,0.155388 c 0.093057,0.09306 0.2139141,0.144268 0.3406244,0.144268 0.09452,0 0.2361547,-0.02956 0.3754475,-0.170313 l 0.02576,-0.03013 c 0.1805544,-0.240544 0.5179604,-0.604288 0.7646494,-0.828151 -0.04244,0.143975 -0.102421,0.320724 -0.172947,0.524106 l -0.7628946,2.223718 c -0.54342,1.571147 -0.7467997,2.159047 -0.7467997,2.486504 0,0.428121 0.2736118,0.885214 1.0414813,0.885214 2.386421,0 3.562805,-1.772769 3.691857,-1.979077 0.131393,-0.220061 0.106226,-0.439828 -0.07287,-0.620089 z"
     stroke="#34497d"
     stroke-miterlimit="10"
     stroke-width="0.441691"
     id="path6"
     style="fill:#6d97c4;fill-opacity:1;stroke:#415a75;stroke-opacity:1" />
  <path
     d="m 12.766616,8.2814061 c -0.767283,0 -1.440046,0.6645697 -1.440046,1.4224896 0,0.8641453 0.578828,1.4224883 1.474578,1.4224883 0.879363,0 1.561197,-0.811178 1.561197,-1.5091086 2.93e-4,-0.6159922 -0.417588,-1.3358693 -1.595729,-1.3358693 z"
     stroke="#34497d"
     stroke-miterlimit="10"
     stroke-width="0.441691"
     id="path8"
     style="fill:#6d97c4;fill-opacity:1;stroke-width:0.442;stroke-miterlimit:10;stroke-dasharray:none;stroke:#415a75;stroke-opacity:1" />
</svg>
