<?xml version="1.0" encoding="UTF-8" standalone="no"?>
<svg
   height="24"
   width="24"
   version="1.1"
   id="svg14"
   sodipodi:docname="mActionIdentify.svg"
   inkscape:version="1.1.2 (b8e25be833, 2022-02-05)"
   xmlns:inkscape="http://www.inkscape.org/namespaces/inkscape"
   xmlns:sodipodi="http://sodipodi.sourceforge.net/DTD/sodipodi-0.dtd"
   xmlns="http://www.w3.org/2000/svg"
   xmlns:svg="http://www.w3.org/2000/svg">
  <defs
     id="defs18" />
  <sodipodi:namedview
     id="namedview16"
     pagecolor="#505050"
     bordercolor="#ffffff"
     borderopacity="1"
     inkscape:pageshadow="0"
     inkscape:pageopacity="0"
     inkscape:pagecheckerboard="1"
     showgrid="false"
     inkscape:zoom="16.833333"
     inkscape:cx="23.316832"
     inkscape:cy="14.524752"
     inkscape:window-width="1920"
     inkscape:window-height="1001"
     inkscape:window-x="-9"
     inkscape:window-y="-9"
     inkscape:window-maximized="1"
     inkscape:current-layer="svg14" />
  <g
     id="g841"
     transform="matrix(0.51158533,0,0,0.52012685,-0.25454975,-0.52139632)">
    <circle
       cx="17.208984"
       cy="17.709015"
       fill="#6d97c4"
       r="16.422655"
       stroke="#445e75"
       stroke-miterlimit="10"
       stroke-width="0.572657"
       id="circle2" />
    <g
       fill="#ffffff"
       id="g12">
      <path
         d="M 3.9078817,20.685686 C 4.3270667,15.864487 5.2685147,12.971997 8.2623647,9.9781472 11.495586,6.7449252 14.49001,5.2445642 20.147861,3.9572302 22.927538,3.3250172 18.112638,1.2290941 11.449774,3.7218682 7.8706667,5.0607402 4.2377317,8.5550932 2.9629967,13.64716 c -1.5444549,6.165223 0.753044,9.246119 0.944885,7.038526 z"
         opacity="0.3"
         id="path4" />
      <path
         d="m 21.146001,24.621557 -0.406586,-0.405442 c -0.370508,-0.369935 -1.080031,-0.296635 -1.373231,0.14202 -0.183823,0.275448 -1.033646,1.155049 -1.56908,1.568507 0.06643,-0.274303 0.193557,-0.693487 0.432928,-1.373803 l 2.147463,-6.096507 c 0.504511,-1.443668 0.809166,-2.315252 0.809166,-3.05856 0,-1.176238 -0.867003,-1.936727 -2.207594,-1.936727 -3.38612,0 -6.036377,3.057988 -7.017338,4.371664 -0.0126,0.0166 -0.02405,0.03265 -0.03436,0.04696 -0.168933,0.191839 -0.235934,0.447817 -0.183249,0.710094 0.04066,0.20272 0.151754,0.399142 0.321834,0.569222 l 0.304653,0.304081 c 0.182104,0.182104 0.418611,0.282319 0.666572,0.282319 0.184968,0 0.462134,-0.05785 0.734718,-0.333286 l 0.05041,-0.05898 c 0.35333,-0.470723 1.013603,-1.182536 1.496353,-1.620619 -0.08304,0.281747 -0.200431,0.627632 -0.338441,1.025629 l -1.492915,4.351621 c -1.063425,3.074594 -1.461421,4.225062 -1.461421,4.865866 0,0.837796 0.535434,1.732286 2.038086,1.732286 4.670018,0 6.972098,-3.469155 7.224639,-3.872879 0.257124,-0.430638 0.207876,-0.860703 -0.142592,-1.21346 z"
         stroke="#34497d"
         stroke-miterlimit="10"
         stroke-width="0.572657"
         id="path6" />
      <path
         d="m 19.249362,6.4740582 c -1.501507,0 -2.818045,1.300504 -2.818045,2.783686 0,1.6910558 1.132715,2.7836848 2.885619,2.7836848 1.720834,0 3.055124,-1.587405 3.055124,-2.9531918 5.72e-4,-1.205443 -0.817182,-2.614179 -3.122698,-2.614179 z"
         stroke="#34497d"
         stroke-miterlimit="10"
         stroke-width="0.572657"
         id="path8" />
      <path
         d="m 45.323671,32.905232 -22.310674,-12.209237 9.580075,23.794352 3.814307,-6.17746 7.541837,8.245634 2.856281,-2.783856 -7.710506,-8.166641 6.228682,-2.702792 z"
         fill-rule="evenodd"
         stroke="#000000"
         stroke-linecap="round"
         stroke-linejoin="round"
         stroke-width="1.2"
         id="path10" />
    </g>
  </g>
</svg>
