<?xml version="1.0" encoding="UTF-8" standalone="no"?>
<svg
   height="24"
   width="24"
   version="1.1"
   id="svg18"
   sodipodi:docname="mActionZoomBox.svg"
   inkscape:version="1.1.2 (b8e25be833, 2022-02-05)"
   xmlns:inkscape="http://www.inkscape.org/namespaces/inkscape"
   xmlns:sodipodi="http://sodipodi.sourceforge.net/DTD/sodipodi-0.dtd"
   xmlns="http://www.w3.org/2000/svg"
   xmlns:svg="http://www.w3.org/2000/svg">
  <defs
     id="defs22" />
  <sodipodi:namedview
     id="namedview20"
     pagecolor="#505050"
     bordercolor="#ffffff"
     borderopacity="1"
     inkscape:pageshadow="0"
     inkscape:pageopacity="0"
     inkscape:pagecheckerboard="1"
     showgrid="false"
     inkscape:zoom="33.666667"
     inkscape:cx="10.841584"
     inkscape:cy="11.955445"
     inkscape:window-width="1099"
     inkscape:window-height="991"
     inkscape:window-x="811"
     inkscape:window-y="0"
     inkscape:window-maximized="0"
     inkscape:current-layer="svg18" />
  <path
     d="M 1.414594,1.172938 H 14.446792 V 12.159664 H 1.414594 Z"
     fill="#fce94f"
     stroke="#c4a000"
     stroke-linecap="round"
     stroke-width="1.07692"
     id="path2"
     style="stroke-width:1.112;stroke-miterlimit:4;stroke-dasharray:2.224,2.224;stroke-dashoffset:0;stroke:#898989;stroke-opacity:1" />
  <path
     d="M 22.382744,9.4332365 A 7.8166663,7.8161115 0 0 1 14.566079,17.249348 7.8166663,7.8161115 0 0 1 6.7494119,9.4332365 7.8166663,7.8161115 0 0 1 14.566079,1.617125 7.8166663,7.8161115 0 0 1 22.382744,9.4332365 Z"
     style="opacity:0.8;fill:#e6e6e6;stroke:#505050;stroke-width:0.977047;stroke-linecap:round;stroke-linejoin:round;stroke-dashoffset:7"
     id="path4" />
  <path
     d="m 7.8260866,14.087644 c 0,2.086807 2.0869568,2.086807 2.0869568,2.086807 0,0 -7.3043482,7.303828 -7.3043482,7.303828 L 0.52173861,21.39147 Z"
     fill="#ffcc30"
     fill-rule="evenodd"
     stroke-linejoin="round"
     stroke-width="1.04344"
     id="path6"
     style="stroke:#505050" />
  <path
     d="m 6.2608692,15.652749 2.0869565,-2.086807 2.0869553,2.086807 -2.0869553,2.086809 z"
     fill-rule="evenodd"
     stroke-linejoin="round"
     stroke-width="1.04344"
     id="path8"
     style="stroke:#505050" />
  <path
     d="m 10.135216,5.2753187 c 2.086957,-3.1301492 4.635391,-3.5454728 6.260871,-2.0867676 1.62548,1.4587093 -2.086957,1.0433839 -4.173914,3.1301515 -2.086957,2.0867637 0,6.2602974 -2.086957,6.2602974 -2.0869547,0 -2.0869547,-4.1735337 0,-7.3036813 z"
     fill="#fcffff"
     fill-rule="evenodd"
     opacity="0.7"
     id="path12"
     style="stroke-width:0.99999" />
  <path
     d="M 2.0869561,20.86977 6.2608692,16.696152"
     opacity="0.5"
     stroke="#fcffff"
     stroke-linecap="round"
     stroke-linejoin="round"
     stroke-width="1.04344"
     id="path14" />
</svg>
