<?xml version="1.0" encoding="UTF-8" standalone="no"?>
<svg
   version="1.1"
   width="24"
   height="24"
   viewBox="0 0 24 24"
   xml:space="preserve"
   id="svg8"
   sodipodi:docname="mActionLocate.svg"
   inkscape:version="1.1.2 (b8e25be833, 2022-02-05)"
   xmlns:inkscape="http://www.inkscape.org/namespaces/inkscape"
   xmlns:sodipodi="http://sodipodi.sourceforge.net/DTD/sodipodi-0.dtd"
   xmlns="http://www.w3.org/2000/svg"
   xmlns:svg="http://www.w3.org/2000/svg"><defs
   id="defs12">
	
	
</defs><sodipodi:namedview
   id="namedview10"
   pagecolor="#505050"
   bordercolor="#ffffff"
   borderopacity="1"
   inkscape:pageshadow="0"
   inkscape:pageopacity="0"
   inkscape:pagecheckerboard="1"
   showgrid="false"
   inkscape:zoom="17.914233"
   inkscape:cx="5.4425997"
   inkscape:cy="15.99287"
   inkscape:window-width="1920"
   inkscape:window-height="1001"
   inkscape:window-x="-9"
   inkscape:window-y="-9"
   inkscape:window-maximized="1"
   inkscape:current-layer="svg8" />
<path
   d="m 12.0175,22.666629 c -0.331646,0 -0.638681,-0.177302 -0.8072,-0.466013 L 10.18255,20.442518 C 8.0722053,16.83459 6.0792839,13.426957 5.398414,12.044799 4.9034064,11.018194 4.6542619,9.9221393 4.6542619,8.7800991 c 0,-4.1061787 3.3030979,-7.4467302 7.3632381,-7.4467302 4.060141,0 7.363239,3.3405515 7.363239,7.4467302 0,1.1413291 -0.249144,2.2371479 -0.739933,3.2571149 -0.0059,0.01232 -0.01242,0.02465 -0.01875,0.03674 -0.693995,1.400647 -2.674261,4.786472 -4.770309,8.369512 l -1.027047,1.75715 c -0.168518,0.28871 -0.475554,0.466013 -0.8072,0.466013 z"
   style="fill:#6d97c4;fill-opacity:1;fill-rule:nonzero;stroke:#415a75;stroke-width:0.446852;stroke-linecap:butt;stroke-linejoin:miter;stroke-miterlimit:4;stroke-dasharray:none;stroke-opacity:1"
   stroke-linecap="round"
   id="path2" /><path
   d="m 12.0175,12.178812 c -2.2349257,0 -4.0534073,-1.818197 -4.0534073,-4.053098 0,-2.2349008 1.8184816,-4.0533622 4.0534073,-4.0533622 2.234926,0 4.053145,1.8184614 4.053145,4.0533622 0,2.234901 -1.818219,4.053098 -4.053145,4.053098 z"
   style="fill:#ffffff;fill-opacity:1;fill-rule:nonzero;stroke:#415a75;stroke-width:0.5;stroke-linecap:butt;stroke-linejoin:miter;stroke-miterlimit:4;stroke-dasharray:none;stroke-opacity:1"
   stroke-linecap="round"
   id="path4" />
</svg>
