<?xml version="1.0" encoding="UTF-8" standalone="no"?>
<svg
   version="1.1"
   width="24"
   height="24"
   viewBox="0 0 24 24"
   xml:space="preserve"
   id="svg18"
   sodipodi:docname="mActionMailSend.svg"
   inkscape:version="1.1.2 (b8e25be833, 2022-02-05)"
   xmlns:inkscape="http://www.inkscape.org/namespaces/inkscape"
   xmlns:sodipodi="http://sodipodi.sourceforge.net/DTD/sodipodi-0.dtd"
   xmlns="http://www.w3.org/2000/svg"
   xmlns:svg="http://www.w3.org/2000/svg"><defs
   id="defs22">
	
	
	
	
	
	
	
</defs><sodipodi:namedview
   id="namedview20"
   pagecolor="#505050"
   bordercolor="#ffffff"
   borderopacity="1"
   inkscape:pageshadow="0"
   inkscape:pageopacity="0"
   inkscape:pagecheckerboard="1"
   showgrid="false"
   inkscape:zoom="12.625"
   inkscape:cx="1.5445545"
   inkscape:cy="19.049505"
   inkscape:window-width="1920"
   inkscape:window-height="1001"
   inkscape:window-x="-9"
   inkscape:window-y="-9"
   inkscape:window-maximized="1"
   inkscape:current-layer="svg18" />
<path
   d="m 4.3368,15.42148 v 2.519501 c 0,0.528007 0.428,0.956013 0.956,0.956013 h 17.350933 c 0.528,0 0.956,-0.428006 0.956,-0.956013 V 5.8560183 c 0,-0.5280071 -0.428,-0.9560129 -0.956,-0.9560129 H 5.2930667 c -0.528,0 -0.956,0.4280058 -0.956,0.9560129 V 8.375519"
   style="fill:#ffffff;fill-opacity:1;fill-rule:nonzero;stroke:none;stroke-width:0.266668;stroke-linecap:butt;stroke-linejoin:miter;stroke-miterlimit:10;stroke-dasharray:none"
   stroke-linecap="round"
   id="path2" /><path
   d="m 13.968533,13.655323 c -0.435467,0 -0.870933,-0.159202 -1.217867,-0.477606 L 6.6264,7.5592413 C 6.4637333,7.4099059 6.4528,7.1568358 6.6021333,6.9939003 c 0.1496,-0.1624022 0.4024,-0.1736023 0.5653334,-0.024267 L 13.2912,12.588109 c 0.386133,0.354405 0.968266,0.354138 1.3544,0 l 6.124266,-5.6184757 c 0.162667,-0.1493353 0.416,-0.1384018 0.565067,0.024267 0.149333,0.1626689 0.1384,0.4160056 -0.02453,0.565341 l -6.124267,5.6184757 c -0.3472,0.318404 -0.7824,0.477606 -1.2176,0.477606 z"
   style="fill:#415a75;fill-opacity:1;fill-rule:nonzero;stroke:none;stroke-width:0.266668;stroke-linecap:butt;stroke-linejoin:miter;stroke-miterlimit:10;stroke-dasharray:none"
   stroke-linecap="round"
   id="path4" /><path
   d="m 6.8970667,16.964435 c -0.1082667,0 -0.216,-0.04347 -0.2949334,-0.129602 C 6.4528,16.672164 6.4637333,16.419094 6.6264,16.269759 l 5.068533,-4.64993 c 0.162667,-0.149602 0.415733,-0.138402 0.565333,0.02427 0.149334,0.162669 0.1384,0.416006 -0.02427,0.565074 l -5.0688,4.650196 c -0.0768,0.07013 -0.1736,0.105069 -0.2701333,0.105069 z"
   style="fill:#415a75;fill-opacity:1;fill-rule:nonzero;stroke:none;stroke-width:0.266668;stroke-linecap:butt;stroke-linejoin:miter;stroke-miterlimit:10;stroke-dasharray:none"
   stroke-linecap="round"
   id="path6" /><path
   d="m 21.04,16.964435 c -0.09653,0 -0.1936,-0.03493 -0.2704,-0.105335 l -5.068267,-4.64993 c -0.162667,-0.149335 -0.1736,-0.402405 -0.02453,-0.565074 0.1496,-0.162669 0.4024,-0.173602 0.565066,-0.02427 l 5.068534,4.64993 c 0.162666,0.149602 0.1736,0.402405 0.02453,0.565074 -0.07893,0.08613 -0.186667,0.129602 -0.294933,0.129602 z"
   style="fill:#415a75;fill-opacity:1;fill-rule:nonzero;stroke:none;stroke-width:0.266668;stroke-linecap:butt;stroke-linejoin:miter;stroke-miterlimit:10;stroke-dasharray:none"
   stroke-linecap="round"
   id="path8" /><path
   d="M 5.2008,13.711857 H 1.8133333 c -0.2210667,0 -0.4,-0.179202 -0.4,-0.400005 0,-0.220803 0.1789333,-0.400005 0.4,-0.400005 H 5.2008 c 0.2210667,0 0.4,0.179202 0.4,0.400005 0,0.220803 -0.1789333,0.400005 -0.4,0.400005 z"
   style="fill:#415a75;fill-opacity:1;fill-rule:nonzero;stroke:none;stroke-width:0.266668;stroke-linecap:butt;stroke-linejoin:miter;stroke-miterlimit:10;stroke-dasharray:none"
   stroke-linecap="round"
   id="path10" /><path
   d="M 5.2008,10.885153 H 0.40000001 C 0.17893334,10.885153 0,10.706217 0,10.485147 0,10.264077 0.17893334,10.085142 0.40000001,10.085142 H 5.2008 c 0.2210667,0 0.4,0.178935 0.4,0.400005 0,0.22107 -0.1789333,0.400006 -0.4,0.400006 z"
   style="fill:#415a75;fill-opacity:1;fill-rule:nonzero;stroke:none;stroke-width:0.266668;stroke-linecap:butt;stroke-linejoin:miter;stroke-miterlimit:10;stroke-dasharray:none"
   stroke-linecap="round"
   id="path12" /><path
   d="M 22.644,19.296999 H 5.2930667 c -0.7477334,0 -1.356,-0.608275 -1.356,-1.356018 V 15.42148 c 0,-0.220803 0.1789333,-0.400005 0.4,-0.400005 0.2210666,0 0.4,0.179202 0.4,0.400005 v 2.519501 c 0,0.306404 0.2496,0.556008 0.556,0.556008 H 22.644 c 0.3064,0 0.556,-0.249604 0.556,-0.556008 V 5.8560183 C 23.2,5.5493475 22.9504,5.3000108 22.644,5.3000108 H 5.2930667 c -0.3066667,0 -0.556,0.2496034 -0.556,0.5560075 V 8.375519 c 0,0.2210696 -0.1789334,0.4000054 -0.4,0.4000054 -0.2210667,0 -0.4,-0.1789358 -0.4,-0.4000054 V 5.8560183 C 3.9370667,5.1082749 4.5453333,4.5 5.2930667,4.5 H 22.644 C 23.391733,4.5 24,5.1082749 24,5.8560183 V 17.940981 c 0,0.747743 -0.608267,1.356018 -1.356,1.356018 z"
   style="fill:#415a75;fill-opacity:1;fill-rule:nonzero;stroke:none;stroke-width:0.266668;stroke-linecap:butt;stroke-linejoin:miter;stroke-miterlimit:10;stroke-dasharray:none"
   stroke-linecap="round"
   id="path14" />
</svg>
