<?xml version="1.0" encoding="UTF-8" standalone="no"?>
<svg
   clip-rule="evenodd"
   fill-rule="evenodd"
   height="24"
   image-rendering="optimizeQuality"
   shape-rendering="geometricPrecision"
   text-rendering="geometricPrecision"
   viewBox="0 0 0.2499502 0.24995019"
   width="24"
   version="1.1"
   id="svg21"
   sodipodi:docname="question.svg"
   inkscape:version="1.1.2 (b8e25be833, 2022-02-05)"
   xmlns:inkscape="http://www.inkscape.org/namespaces/inkscape"
   xmlns:sodipodi="http://sodipodi.sourceforge.net/DTD/sodipodi-0.dtd"
   xmlns="http://www.w3.org/2000/svg"
   xmlns:svg="http://www.w3.org/2000/svg">
  <defs
     id="defs25" />
  <sodipodi:namedview
     id="namedview23"
     pagecolor="#505050"
     bordercolor="#ffffff"
     borderopacity="1"
     inkscape:pageshadow="0"
     inkscape:pageopacity="0"
     inkscape:pagecheckerboard="1"
     inkscape:document-units="in"
     showgrid="false"
     units="px"
     inkscape:zoom="12.987819"
     inkscape:cx="19.98026"
     inkscape:cy="24.138001"
     inkscape:window-width="1920"
     inkscape:window-height="1001"
     inkscape:window-x="-9"
     inkscape:window-y="-9"
     inkscape:window-maximized="1"
     inkscape:current-layer="svg21" />
  <g
     id="Layer_x0020_1"
     transform="matrix(0.13425403,0,0,0.13425403,0.01033005,0.01041177)">
    <path
       d="M 0.853181,1.70664 C 0.713083,1.7066557 0.574323,1.672018 0.451394,1.606388 L 0.047162,1.682624 C 0.040662,1.683834 0.0339809,1.6817815 0.0293155,1.677124 0.0246305,1.672444 0.0225793,1.665774 0.0238037,1.659278 l 0.076252,-0.40422 c -0.175492,-0.328724 -0.114425,-0.741043 0.149657,-1.0051 0.161161,-0.161177 0.375465,-0.249937 0.603394,-0.249937 0.227929,0 0.442232,0.0887638 0.603394,0.249937 0.332709,0.332724 0.332709,0.874079 0,1.2068 -0.16113,0.161138 -0.375406,0.249874 -0.603319,0.249886 z"
       fill="#9c9c9d"
       id="path2" />
    <path
       d="m 0.853122,1.53666 c -0.376787,0 -0.683327,-0.306539 -0.683327,-0.683331 0,-0.376787 0.306539,-0.683327 0.683327,-0.683327 0.376787,0 0.683343,0.306539 0.683343,0.683327 0,0.376791 -0.306555,0.683331 -0.683343,0.683331 z"
       fill="#ffffff"
       id="path4" />
    <path
       d="m 0.853122,1.36334 c -0.28122,0 -0.509996,-0.228791 -0.509996,-0.510012 0,-0.28122 0.228776,-0.509996 0.509996,-0.509996 0.28122,0 0.509996,0.228776 0.509996,0.509996 0,0.28122 -0.228791,0.510012 -0.509996,0.510012 z"
       fill="#9c9c9d"
       id="path6" />
    <path
       d="M 0.90022,1.03401 H 0.8060231 c -0.0110394,0 -0.02,-0.00897 -0.02,-0.02 V 0.816884 c 0,-0.0110394 0.008961,-0.02 0.02,-0.02 h 0.0470984 c 0.0469016,0 0.0850709,-0.0381772 0.0850709,-0.0850945 0,-0.0469213 -0.0381693,-0.0850827 -0.0850709,-0.0850827 -0.0469173,0 -0.0850787,0.0381772 -0.0850787,0.0850827 V 0.758884 c 0,0.0110394 -0.008961,0.02 -0.02,0.02 H 0.6538184 c -0.0110394,0 -0.02,-0.008961 -0.02,-0.02 V 0.7117895 c 0,-0.120929 0.0983701,-0.219307 0.219287,-0.219307 0.120929,0 0.219303,0.098374 0.219303,0.219307 0,0.0962598 -0.061831,0.17998 -0.152193,0.208843 v 0.093374 c 0,0.011028 -0.008957,0.020004 -0.0199954,0.020004 z"
       fill="#ffffff"
       id="path8" />
    <path
       d="M 0.90022,1.21416 H 0.8060231 c -0.0110394,0 -0.02,-0.00897 -0.02,-0.02 V 1.087947 c 0,-0.011035 0.008961,-0.019996 0.02,-0.019996 H 0.90022 c 0.0110394,0 0.0199961,0.00897 0.0199961,0.019996 V 1.19416 c 0,0.011039 -0.008957,0.02 -0.0199961,0.02 z"
       fill="#ffffff"
       id="path10" />
    <path
       d="M 0.100055,1.25506 0.023803,1.65928 c -0.0012244,0.0065 8.2677e-4,0.013165 0.0055118,0.017846 0.0046654,0.00466 0.0113465,0.00671 0.0178465,0.0055 L 0.4513933,1.60639 c 0.122929,0.06563 0.261689,0.100268 0.401787,0.100252 0.212524,-1.18e-5 0.413189,-0.077169 0.569965,-0.21824 -0.059874,-0.024791 -0.117594,-0.051228 -0.173209,-0.079051 -0.111941,0.080114 -0.248972,0.127311 -0.396815,0.127311 -0.376787,0 -0.683327,-0.306539 -0.683327,-0.683331 0,-0.110693 0.0264567,-0.215327 0.0733819,-0.307902 C 0.2032549,0.4902085 0.1681447,0.437579 0.1375782,0.38885 c -0.16552,0.256453 -0.18461,0.590693 -0.0375232,0.86621 z"
       fill="#8f8f90"
       id="path12" />
    <path
       d="m 0.169795,0.853327 c 0,0.376791 0.306539,0.683331 0.683327,0.683331 0.147843,0 0.284874,-0.047197 0.396815,-0.127311 C 1.188803,1.378768 1.130213,1.346516 1.074087,1.312942 1.007197,1.345229 0.932237,1.36334 0.853122,1.36334 c -0.28122,0 -0.509996,-0.228791 -0.509996,-0.510012 0,-0.0522205 0.00789,-0.10263 0.0225354,-0.150106 C 0.320626,0.6491227 0.2798701,0.5961821 0.2431774,0.5454261 0.1962522,0.6380009 0.1697955,0.7426351 0.1697955,0.8533281 Z"
       fill="#eceded"
       id="path14" />
    <path
       d="m 0.343126,0.853327 c 0,0.28122 0.228776,0.510012 0.509996,0.510012 0.0791142,0 0.154079,-0.01811 0.220965,-0.050398 C 1.018178,1.279492 0.964717,1.244728 0.913634,1.208992 0.910087,1.212202 0.905382,1.214162 0.9002206,1.214162 H 0.8060237 c -0.0110394,0 -0.02,-0.00897 -0.02,-0.02 V 1.1140357 C 0.6170787,0.98048869 0.4780547,0.83824069 0.3656617,0.70322069 0.351016,0.75069709 0.3431263,0.80110649 0.343126,0.853327 Z"
       fill="#8f8f90"
       id="path16" />
    <path
       d="m 0.786024,1.11404 v 0.080126 c 0,0.011028 0.008961,0.02 0.02,0.02 h 0.0941969 c 0.005161,0 0.009866,-0.00196 0.0134134,-0.00517 C 0.8693233,1.1780006 0.8268036,1.1462723 0.786024,1.11404 Z"
       fill="#eceded"
       id="path18" />
  </g>
</svg>
