<?xml version="1.0" encoding="UTF-8" standalone="no"?>
<svg
   height="16"
   width="16"
   version="1.1"
   id="svg18"
   sodipodi:docname="zoom.svg"
   inkscape:version="1.1.2 (b8e25be833, 2022-02-05)"
   xmlns:inkscape="http://www.inkscape.org/namespaces/inkscape"
   xmlns:sodipodi="http://sodipodi.sourceforge.net/DTD/sodipodi-0.dtd"
   xmlns="http://www.w3.org/2000/svg"
   xmlns:svg="http://www.w3.org/2000/svg">
  <defs
     id="defs22" />
  <sodipodi:namedview
     id="namedview20"
     pagecolor="#505050"
     bordercolor="#ffffff"
     borderopacity="1"
     inkscape:pageshadow="0"
     inkscape:pageopacity="0"
     inkscape:pagecheckerboard="1"
     showgrid="false"
     inkscape:zoom="23.820332"
     inkscape:cx="11.691693"
     inkscape:cy="11.985559"
     inkscape:window-width="1920"
     inkscape:window-height="1001"
     inkscape:window-x="-9"
     inkscape:window-y="-9"
     inkscape:window-maximized="1"
     inkscape:current-layer="svg18" />
  <g
     transform="matrix(0.62487279,0,0,0.62487718,0.49997601,-4.5020533)"
     id="g16">
    <path
       d="m 2.5,10.645763 13,-0.145764 V 23.5 H 2.5 V 10.645754 Z"
       fill="#eeeeec"
       opacity="0.99"
       stroke="#898b86"
       stroke-dashoffset="0.96"
       id="path2" />
    <g
       stroke="#505050"
       id="g10">
      <path
         d="M 17.96122,7 A 5.9612203,6.0742435 0 0 1 12,13.074244 5.9612203,6.0742435 0 0 1 6.0387797,7 5.9612203,6.0742435 0 0 1 12,0.92575645 5.9612203,6.0742435 0 0 1 17.96122,7 Z"
         style="opacity:0.8;fill:#e6e6e6;stroke-width:0.752183;stroke-linecap:round;stroke-linejoin:round;stroke-dashoffset:7"
         transform="matrix(1.4003553,0,0,1.3742014,-1.673829,7.249508)"
         id="path4" />
      <path
         d="m 7.8260866,22.087644 c 0,2.086807 2.0869568,2.086807 2.0869568,2.086807 0,0 -7.3043482,7.303828 -7.3043482,7.303828 L 0.52173861,29.39147 Z"
         fill="#ffcc30"
         fill-rule="evenodd"
         stroke-linejoin="round"
         stroke-width="1.04344"
         id="path6" />
      <path
         d="m 6.2608692,23.652749 2.0869565,-2.086807 2.0869553,2.086807 -2.0869553,2.086809 z"
         fill-rule="evenodd"
         stroke-linejoin="round"
         stroke-width="1.04344"
         id="path8" />
    </g>
    <path
       d="m 10.434781,12.175305 c 2.086957,-3.1302127 4.635391,-3.545545 6.260871,-2.08681 1.62548,1.458739 -2.086957,1.043405 -4.173914,3.130215 -2.086957,2.086806 0,6.260424 -2.086957,6.260424 -2.0869553,0 -2.0869553,-4.173618 0,-7.303829 z"
       fill="#fcffff"
       fill-rule="evenodd"
       opacity="0.7"
       id="path12" />
    <path
       d="M 2.0869561,28.86977 6.2608692,24.696152"
       opacity="0.5"
       stroke="#fcffff"
       stroke-linecap="round"
       stroke-linejoin="round"
       stroke-width="1.04344"
       id="path14" />
  </g>
</svg>
